<?xml version="1.0" encoding="UTF-8"?>
<svg xmlns="http://www.w3.org/2000/svg" fill="#4D4D4D"  xmlns:xlink="http://www.w3.org/1999/xlink" width="25px" height="25px" viewBox="0 0 25 25" version="1.1">
<g id="surface1">
<path  d="M 13.554688 2.175781 C 15.199219 0.0117188 17.480469 0 17.480469 0 C 17.480469 0 17.820312 2.035156 16.1875 3.996094 C 14.445312 6.089844 12.464844 5.746094 12.464844 5.746094 C 12.464844 5.746094 12.09375 4.101562 13.554688 2.175781 Z M 12.675781 7.171875 C 13.519531 7.171875 15.089844 6.011719 17.128906 6.011719 C 20.644531 6.011719 22.027344 8.511719 22.027344 8.511719 C 22.027344 8.511719 19.324219 9.894531 19.324219 13.25 C 19.324219 17.03125 22.691406 18.335938 22.691406 18.335938 C 22.691406 18.335938 20.335938 24.964844 17.15625 24.964844 C 15.695312 24.964844 14.558594 23.980469 13.019531 23.980469 C 11.453125 23.980469 9.894531 25 8.882812 25 C 5.976562 25 2.308594 18.714844 2.308594 13.660156 C 2.308594 8.6875 5.414062 6.082031 8.328125 6.082031 C 10.222656 6.082031 11.691406 7.171875 12.675781 7.171875 Z M 12.675781 7.171875 " />
</g>
</svg>
