<svg width="21" height="21" viewBox="0 0 21 21" fill="none" xmlns="http://www.w3.org/2000/svg">
<path d="M21 10.7396C21 9.97215 20.9299 9.23779 20.7997 8.53162H10.7236V12.5774L16.5266 12.5786C16.2912 13.9247 15.5337 15.0722 14.3731 15.8373V18.4621H17.8274C19.8444 16.6341 21 13.9321 21 10.7396Z" fill="#4285F4"/>
<path d="M14.3744 15.8374C13.4128 16.4724 12.1746 16.8439 10.726 16.8439C7.9278 16.8439 5.554 14.9976 4.70388 12.5088H1.14068V15.2158C2.90601 18.6461 6.53432 21 10.726 21C13.6232 21 16.0571 20.067 17.8286 18.461L14.3744 15.8374Z" fill="#34A853"/>
<path d="M4.36824 10.5005C4.36824 9.80172 4.48718 9.1262 4.70378 8.49114V5.78417H1.14057C0.410656 7.20263 0 8.80377 0 10.5005C0 12.1973 0.411908 13.7984 1.14057 15.2169L4.70378 12.5099C4.48718 11.8749 4.36824 11.1993 4.36824 10.5005Z" fill="#FABB05"/>
<path d="M10.726 4.15608C12.3073 4.15608 13.7233 4.68939 14.8414 5.73147L17.9025 2.7364C16.0433 1.04086 13.6194 0 10.726 0C6.53557 0 2.9059 2.35387 1.14057 5.78417L4.70378 8.49114C5.55389 6.0024 7.9278 4.15608 10.726 4.15608Z" fill="#E94235"/>
</svg>
