<svg width="55" height="54" viewBox="0 0 55 54" fill="none" xmlns="http://www.w3.org/2000/svg">
<path opacity="0.998" fill-rule="evenodd" clip-rule="evenodd" d="M53.9396 53.6226C50.122 53.6226 46.3048 53.6226 42.4872 53.6226C42.3945 53.5726 42.3101 53.5073 42.2331 53.4272C37.5557 43.3948 32.8784 33.3627 28.201 23.3304C28.0058 23.0854 27.7973 23.0724 27.5756 23.2914C22.5465 33.3236 17.5173 43.3557 12.4882 53.3881C12.4048 53.4917 12.3071 53.5698 12.195 53.6226C8.2603 53.6226 4.3256 53.6226 0.390866 53.6226C0.147492 53.5155 0.0172032 53.3263 0 53.0558C0.0966581 52.7647 0.220433 52.4848 0.371323 52.2155C9.33213 35.0105 18.283 17.7993 27.2238 0.582004C27.3104 0.402217 27.4211 0.239355 27.5561 0.0934207C27.9023 -0.0820182 28.1824 -0.0103583 28.3964 0.308397C37.024 17.837 45.6622 35.3609 54.3109 52.88C54.3726 53.2251 54.2491 53.4729 53.9396 53.6226Z" fill="#0F2448"/>
<path opacity="0.992" fill-rule="evenodd" clip-rule="evenodd" d="M19.7835 40.9589C20.2512 40.9523 20.7072 41.0238 21.1515 41.1739C22.7041 41.6699 24.0982 42.4384 25.3338 43.48C25.2887 44.5162 25.2822 45.552 25.3142 46.5874C24.1564 47.5216 22.873 48.2447 21.4642 48.7567C20.998 48.9076 20.5224 49.0182 20.0375 49.089C19.6426 49.0776 19.4145 48.8822 19.3535 48.5027C19.6266 47.3527 19.783 46.1864 19.8226 45.0044C19.7812 43.8353 19.6248 42.6823 19.3535 41.5452C19.364 41.2486 19.5073 41.0531 19.7835 40.9589Z" fill="#0F2448"/>
<path opacity="0.992" fill-rule="evenodd" clip-rule="evenodd" d="M34.6085 40.9586C35.0113 40.8656 35.3305 40.9828 35.5662 41.3104C35.5727 41.3819 35.5792 41.4538 35.5857 41.5254C35.3162 42.669 35.1599 43.8287 35.1167 45.0041C35.1599 46.1794 35.3162 47.3391 35.5857 48.4828C35.5338 48.8728 35.3059 49.0749 34.9017 49.0886C33.4546 48.8373 32.1192 48.3096 30.8953 47.5056C30.4544 47.2081 30.0245 46.8955 29.6055 46.5675C29.6576 45.5384 29.6576 44.5088 29.6055 43.4797C31.0657 42.2348 32.7334 41.3944 34.6085 40.9586Z" fill="#0F2448"/>
<path opacity="0.994" fill-rule="evenodd" clip-rule="evenodd" d="M25.5547 44.1082C25.5547 43.5559 26.0024 43.1082 26.5547 43.1082C27.1649 43.1082 27.775 43.1082 28.3852 43.1082C28.9375 43.1082 29.3852 43.5559 29.3852 44.1082C29.3852 44.7053 29.3852 45.3024 29.3852 45.8996C29.3852 46.4518 28.9375 46.8996 28.3852 46.8996C27.775 46.8996 27.1649 46.8996 26.5547 46.8996C26.0024 46.8996 25.5547 46.4518 25.5547 45.8996C25.5547 45.3024 25.5547 44.7053 25.5547 44.1082Z" fill="#6194D7"/>
</svg>
