<svg width="24" height="24" viewBox="0 0 24 24" fill="var(--filled)" xmlns="http://www.w3.org/2000/svg">
<mask id="mask0_1_416" style="mask-type:alpha" maskUnits="userSpaceOnUse" x="1" y="1" width="22" height="22">
<circle cx="12" cy="12" r="11" />
</mask>
<g mask="url(#mask0_1_416)">
<rect width="24" height="24" />
</g>
<path d="M9.33485 7.82118C8.91686 7.40319 8.23917 7.40319 7.82118 7.82118C7.40319 8.23917 7.40319 8.91686 7.82118 9.33485L10.4863 12L7.82118 14.6651C7.40319 15.0831 7.40319 15.7608 7.82118 16.1788C8.23917 16.5968 8.91686 16.5968 9.33485 16.1788L12 13.5136L14.6651 16.1788C15.0831 16.5968 15.7608 16.5968 16.1788 16.1788C16.5968 15.7608 16.5968 15.0831 16.1788 14.6651L13.5136 12L16.1788 9.33485C16.5968 8.91686 16.5968 8.23917 16.1788 7.82118C15.7608 7.40319 15.0831 7.40319 14.6651 7.82118L12 10.4863L9.33485 7.82118Z" fill="var(--filled-text)" fill-opacity="0.8"/>
</svg>
