<svg width="24" height="24" viewBox="0 0 24 24" fill="var(--filled)" xmlns="http://www.w3.org/2000/svg">
<circle cx="12" cy="12" r="12" />
<path d="M13.7021 8.72727V16H12.3846V10.0092H12.342L10.641 11.0959V9.88849L12.4485 8.72727H13.7021Z" />
<mask id="mask0_1_423" style="mask-type:alpha" maskUnits="userSpaceOnUse" x="1" y="1" width="22" height="22">
<circle cx="12" cy="12" r="11" />
</mask>
<g mask="url(#mask0_1_423)">
<rect width="24" height="24" />
</g>
<path d="M16.7915 8.83148C16.4023 8.41223 15.757 8.40571 15.3601 8.81809L10.8902 13.4621L8.64001 11.1242C8.24308 10.7118 7.5978 10.7184 7.20855 11.1376C6.82897 11.5465 6.8342 12.1967 7.2212 12.5987L10.8902 16.4106L16.7789 10.2926C17.1659 9.89053 17.1711 9.24032 16.7915 8.83148Z" fill="var(--filled-text)" fill-opacity="0.8"/>
</svg>
