<svg width="45" height="30" viewBox="0 0 45 30" fill="var(--filled)" xmlns="http://www.w3.org/2000/svg">
<mask id="mask0_1_417" style="mask-type:luminance" maskUnits="userSpaceOnUse" x="0" y="0" width="45" height="28">
<path d="M0 0H45V28H0V0Z" />
</mask>
<g mask="url(#mask0_1_417)">
<mask id="mask1_1_417" style="mask-type:luminance" maskUnits="userSpaceOnUse" x="21" y="0" width="3" height="21">
<path d="M21.8023 20.1834L22.6066 -2.28882e-05L23.4111 20.1834H21.8023Z" />
</mask>
<g mask="url(#mask1_1_417)">
<mask id="mask2_1_417" style="mask-type:luminance" maskUnits="userSpaceOnUse" x="-8678" y="-8602" width="17203" height="17445">
<path d="M-8677.24 -8601.01H8524.15V8842.92H-8677.24V-8601.01Z" fill="url(#paint0_radial_1_417)"/>
</mask>
<g mask="url(#mask2_1_417)">
<path d="M21.8066 20.1816L22.6109 -0.00179482L23.4154 20.1816H21.8066Z" fill="var(--filled)"/>
</g>
</g>
<mask id="mask3_1_417" style="mask-type:luminance" maskUnits="userSpaceOnUse" x="17" y="0" width="6" height="21">
<path d="M21.242 20.407L17.5972 0.548077L22.81 20.044L21.242 20.407Z" />
</mask>
<g mask="url(#mask3_1_417)">
<mask id="mask4_1_417" style="mask-type:luminance" maskUnits="userSpaceOnUse" x="-8678" y="-8602" width="17203" height="17445">
<path d="M-8677.24 -8601.01H8524.14V8842.93H-8677.24V-8601.01Z" fill="url(#paint1_radial_1_417)"/>
</mask>
<g mask="url(#mask4_1_417)">
<path d="M21.2424 20.4062L17.5977 0.547285L22.8104 20.0432L21.2424 20.4062Z" fill="var(--filled)"/>
</g>
</g>
<mask id="mask5_1_417" style="mask-type:luminance" maskUnits="userSpaceOnUse" x="12" y="2" width="11" height="19">
<path d="M20.7443 20.7515L12.8338 2.21275L22.1937 20.0437L20.7443 20.7515Z" />
</mask>
<g mask="url(#mask5_1_417)">
<mask id="mask6_1_417" style="mask-type:luminance" maskUnits="userSpaceOnUse" x="-8678" y="-8602" width="17203" height="17445">
<path d="M-8677.24 -8601.01H8524.14V8842.93H-8677.24V-8601.01Z" fill="url(#paint2_radial_1_417)"/>
</mask>
<g mask="url(#mask6_1_417)">
<path d="M20.7445 20.7515L12.834 2.21275L22.1939 20.0437L20.7445 20.7515Z" fill="var(--filled)"/>
</g>
</g>
<mask id="mask7_1_417" style="mask-type:luminance" maskUnits="userSpaceOnUse" x="8" y="4" width="14" height="18">
<path d="M20.3351 21.1994L8.5549 4.91067L21.5929 20.1823L20.3351 21.1994Z" />
</mask>
<g mask="url(#mask7_1_417)">
<mask id="mask8_1_417" style="mask-type:luminance" maskUnits="userSpaceOnUse" x="-8678" y="-8602" width="17203" height="17445">
<path d="M-8677.25 -8601.01H8524.15V8842.93H-8677.25V-8601.01Z" fill="url(#paint3_radial_1_417)"/>
</mask>
<g mask="url(#mask8_1_417)">
<path d="M20.3349 21.1982L8.55469 4.90951L21.5927 20.1812L20.3349 21.1982Z" />
</g>
</g>
<mask id="mask9_1_417" style="mask-type:luminance" maskUnits="userSpaceOnUse" x="4" y="8" width="18" height="14">
<path d="M20.0343 21.7283L4.97525 8.5065L21.0375 20.4531L20.0343 21.7283Z" />
</mask>
<g mask="url(#mask9_1_417)">
<mask id="mask10_1_417" style="mask-type:luminance" maskUnits="userSpaceOnUse" x="-8678" y="-8602" width="17203" height="17445">
<path d="M-8677.24 -8601.01H8524.14V8842.93H-8677.24V-8601.01Z" fill="url(#paint4_radial_1_417)"/>
</mask>
<g mask="url(#mask10_1_417)">
<path d="M20.0346 21.7275L4.97559 8.50571L21.0378 20.4523L20.0346 21.7275Z" fill="var(--filled)"/>
</g>
</g>
<mask id="mask11_1_417" style="mask-type:luminance" maskUnits="userSpaceOnUse" x="2" y="12" width="19" height="11">
<path d="M19.8571 22.3121L2.27435 12.8199L20.5553 20.8425L19.8571 22.3121Z" />
</mask>
<g mask="url(#mask11_1_417)">
<mask id="mask12_1_417" style="mask-type:luminance" maskUnits="userSpaceOnUse" x="-8678" y="-8602" width="17203" height="17445">
<path d="M-8677.24 -8601.01H8524.14V8842.93H-8677.24V-8601.01Z" fill="url(#paint5_radial_1_417)"/>
</mask>
<g mask="url(#mask12_1_417)">
<path d="M19.8582 22.311L2.27539 12.8189L20.5563 20.8415L19.8582 22.311Z" />
</g>
</g>
<mask id="mask13_1_417" style="mask-type:luminance" maskUnits="userSpaceOnUse" x="0" y="17" width="21" height="6">
<path d="M19.8128 22.9211L0.587677 17.6348L20.1708 21.3307L19.8128 22.9211Z" />
</mask>
<g mask="url(#mask13_1_417)">
<mask id="mask14_1_417" style="mask-type:luminance" maskUnits="userSpaceOnUse" x="-8678" y="-8602" width="17203" height="17445">
<path d="M-8677.25 -8601.01H8524.15V8842.93H-8677.25V-8601.01Z" fill="url(#paint6_radial_1_417)"/>
</mask>
<g mask="url(#mask14_1_417)">
<path d="M19.813 22.9209L0.587891 17.6346L20.171 21.3305L19.813 22.9209Z" />
</g>
</g>
<mask id="mask15_1_417" style="mask-type:luminance" maskUnits="userSpaceOnUse" x="0" y="21" width="20" height="3">
<path d="M19.9028 23.525L0 22.7092L19.9028 21.8936V23.525Z" />
</mask>
<g mask="url(#mask15_1_417)">
<mask id="mask16_1_417" style="mask-type:luminance" maskUnits="userSpaceOnUse" x="-8678" y="-8602" width="17203" height="17445">
<path d="M-8677.25 -8601.01H8524.15V8842.93H-8677.25V-8601.01Z" fill="url(#paint7_radial_1_417)"/>
</mask>
<g mask="url(#mask16_1_417)">
<path d="M19.9028 23.5239L0 22.7081L19.9028 21.8925V23.5239Z" />
</g>
</g>
<mask id="mask17_1_417" style="mask-type:luminance" maskUnits="userSpaceOnUse" x="0" y="22" width="21" height="6">
<path d="M20.1233 24.0933L0.540436 27.7894L19.7653 22.5029L20.1233 24.0933Z" />
</mask>
<g mask="url(#mask17_1_417)">
<mask id="mask18_1_417" style="mask-type:luminance" maskUnits="userSpaceOnUse" x="-8678" y="-8602" width="17203" height="17445">
<path d="M-8677.25 -8601.01H8524.15V8842.93H-8677.25V-8601.01Z" fill="url(#paint8_radial_1_417)"/>
</mask>
<g mask="url(#mask18_1_417)">
<path d="M20.1239 24.0934L0.541016 27.7896L19.7658 22.503L20.1239 24.0934Z" />
</g>
</g>
<mask id="mask19_1_417" style="mask-type:luminance" maskUnits="userSpaceOnUse" x="24" y="22" width="21" height="6">
<path d="M25.1875 22.7135L44.412 28L24.8295 24.3039L25.1875 22.7135Z" />
</mask>
<g mask="url(#mask19_1_417)">
<mask id="mask20_1_417" style="mask-type:luminance" maskUnits="userSpaceOnUse" x="-8678" y="-8602" width="17203" height="17445">
<path d="M-8677.25 -8601.01H8524.15V8842.93H-8677.25V-8601.01Z" fill="url(#paint9_radial_1_417)"/>
</mask>
<g mask="url(#mask20_1_417)">
<path d="M25.1871 22.7135L44.4117 28L24.8291 24.3039L25.1871 22.7135Z" />
</g>
</g>
<mask id="mask21_1_417" style="mask-type:luminance" maskUnits="userSpaceOnUse" x="25" y="22" width="20" height="2">
<path d="M25.0972 22.1098L45 22.9253L25.0972 23.7409V22.1098Z" />
</mask>
<g mask="url(#mask21_1_417)">
<mask id="mask22_1_417" style="mask-type:luminance" maskUnits="userSpaceOnUse" x="-8678" y="-8602" width="17203" height="17445">
<path d="M-8677.25 -8601.01H8524.14V8842.93H-8677.25V-8601.01Z" fill="url(#paint10_radial_1_417)"/>
</mask>
<g mask="url(#mask22_1_417)">
<path d="M25.0977 22.1096L45.0005 22.9251L25.0977 23.7407V22.1096Z" />
</g>
</g>
<mask id="mask23_1_417" style="mask-type:luminance" maskUnits="userSpaceOnUse" x="24" y="17" width="21" height="7">
<path d="M24.8767 21.5415L44.4595 17.8453L25.2347 23.1319L24.8767 21.5415Z" />
</mask>
<g mask="url(#mask23_1_417)">
<mask id="mask24_1_417" style="mask-type:luminance" maskUnits="userSpaceOnUse" x="-8678" y="-8602" width="17203" height="17445">
<path d="M-8677.24 -8601.01H8524.15V8842.92H-8677.24V-8601.01Z" fill="url(#paint11_radial_1_417)"/>
</mask>
<g mask="url(#mask24_1_417)">
<path d="M24.8809 21.5395L44.4637 17.8433L25.2389 23.1299L24.8809 21.5395Z" />
</g>
</g>
<mask id="mask25_1_417" style="mask-type:luminance" maskUnits="userSpaceOnUse" x="24" y="13" width="19" height="10">
<path d="M24.5374 21.0371L42.818 13.0145L25.2353 22.5069L24.5374 21.0371Z" />
</mask>
<g mask="url(#mask25_1_417)">
<mask id="mask26_1_417" style="mask-type:luminance" maskUnits="userSpaceOnUse" x="-8678" y="-8602" width="17203" height="17445">
<path d="M-8677.25 -8601.01H8524.14V8842.93H-8677.25V-8601.01Z" fill="url(#paint12_radial_1_417)"/>
</mask>
<g mask="url(#mask26_1_417)">
<path d="M24.5371 21.037L42.8178 13.0144L25.235 22.5068L24.5371 21.037Z" />
</g>
</g>
<mask id="mask27_1_417" style="mask-type:luminance" maskUnits="userSpaceOnUse" x="24" y="8" width="17" height="14">
<path d="M24.0956 20.6218L40.1576 8.67551L25.0985 21.8973L24.0956 20.6218Z" />
</mask>
<g mask="url(#mask27_1_417)">
<mask id="mask28_1_417" style="mask-type:luminance" maskUnits="userSpaceOnUse" x="-8678" y="-8602" width="17203" height="17445">
<path d="M-8677.25 -8601.01H8524.15V8842.92H-8677.25V-8601.01Z" fill="url(#paint13_radial_1_417)"/>
</mask>
<g mask="url(#mask28_1_417)">
<path d="M24.0967 20.621L40.1587 8.67466L25.0996 21.8965L24.0967 20.621Z" />
</g>
</g>
<mask id="mask29_1_417" style="mask-type:luminance" maskUnits="userSpaceOnUse" x="23" y="5" width="14" height="17">
<path d="M23.5738 20.317L36.6118 5.04539L24.8316 21.3341L23.5738 20.317Z" />
</mask>
<g mask="url(#mask29_1_417)">
<mask id="mask30_1_417" style="mask-type:luminance" maskUnits="userSpaceOnUse" x="-8678" y="-8602" width="17203" height="17445">
<path d="M-8677.25 -8601.01H8524.15V8842.93H-8677.25V-8601.01Z" fill="url(#paint14_radial_1_417)"/>
</mask>
<g mask="url(#mask30_1_417)">
<path d="M23.5742 20.3169L36.6122 5.04526L24.832 21.334L23.5742 20.3169Z" />
</g>
</g>
<mask id="mask31_1_417" style="mask-type:luminance" maskUnits="userSpaceOnUse" x="22" y="2" width="11" height="19">
<path d="M22.9982 20.1374L32.3583 2.30643L24.4476 20.8452L22.9982 20.1374Z" />
</mask>
<g mask="url(#mask31_1_417)">
<mask id="mask32_1_417" style="mask-type:luminance" maskUnits="userSpaceOnUse" x="-8678" y="-8602" width="17203" height="17445">
<path d="M-8677.24 -8601.01H8524.15V8842.92H-8677.24V-8601.01Z" fill="url(#paint15_radial_1_417)"/>
</mask>
<g mask="url(#mask32_1_417)">
<path d="M23.002 20.1365L32.3621 2.30551L24.4513 20.8442L23.002 20.1365Z" />
</g>
</g>
<mask id="mask33_1_417" style="mask-type:luminance" maskUnits="userSpaceOnUse" x="22" y="0" width="6" height="21">
<path d="M22.3976 20.0921L27.6107 0.596235L23.9659 20.4552L22.3976 20.0921Z" />
</mask>
<g mask="url(#mask33_1_417)">
<mask id="mask34_1_417" style="mask-type:luminance" maskUnits="userSpaceOnUse" x="-8678" y="-8602" width="17203" height="17445">
<path d="M-8677.24 -8601.01H8524.15V8842.93H-8677.24V-8601.01Z" fill="url(#paint16_radial_1_417)"/>
</mask>
<g mask="url(#mask34_1_417)">
<path d="M22.3984 20.092L27.6115 0.596113L23.9667 20.4551L22.3984 20.092Z" />
</g>
</g>
</g>
<g clip-path="url(#clip0_1_417)">
<mask id="mask35_1_417" style="mask-type:alpha" maskUnits="userSpaceOnUse" x="10" y="5" width="25" height="24">
<path d="M34.2243 14.0025L27.0295 12.9569L23.8133 6.43654C23.7254 6.25802 23.5809 6.1135 23.4024 6.02565C22.9547 5.80462 22.4106 5.98881 22.1867 6.43654L18.9705 12.9569L11.7757 14.0025C11.5773 14.0309 11.396 14.1244 11.2571 14.2661C11.0893 14.4386 10.9968 14.6707 11 14.9114C11.0031 15.1521 11.1018 15.3817 11.2741 15.5497L16.4796 20.6249L15.2498 27.7913C15.221 27.958 15.2394 28.1295 15.3031 28.2862C15.3667 28.443 15.473 28.5788 15.6099 28.6782C15.7468 28.7776 15.9088 28.8367 16.0775 28.8487C16.2463 28.8608 16.4151 28.8253 16.5647 28.7463L23 25.3628L29.4353 28.7463C29.611 28.8398 29.8151 28.871 30.0106 28.837C30.5036 28.752 30.8352 28.2844 30.7502 27.7913L29.5204 20.6249L34.7259 15.5497C34.8675 15.4109 34.9611 15.2295 34.9894 15.0312C35.0659 14.5353 34.7202 14.0762 34.2243 14.0025Z" fill="#006FFD"/>
</mask>
<g mask="url(#mask35_1_417)">
<rect x="11" y="5.93213" width="24" height="24" />
</g>
</g>
<defs>
<radialGradient id="paint0_radial_1_417" cx="0" cy="0" r="1" gradientUnits="userSpaceOnUse" gradientTransform="translate(22.3832 18.3163) rotate(-0.409174) scale(20.1647 20.449)">
<stop stop-color="white" stop-opacity="0"/>
<stop offset="0.0723348" stop-color="white" stop-opacity="0"/>
<stop offset="0.37625" stop-color="white" stop-opacity="0.01"/>
<stop offset="0.486862" stop-color="white" stop-opacity="0.01"/>
<stop offset="1" stop-color="white"/>
</radialGradient>
<radialGradient id="paint1_radial_1_417" cx="0" cy="0" r="1" gradientUnits="userSpaceOnUse" gradientTransform="translate(22.38 18.3182) rotate(-0.409174) scale(20.1649 20.4492)">
<stop stop-color="white" stop-opacity="0"/>
<stop offset="0.0723348" stop-color="white" stop-opacity="0"/>
<stop offset="0.37625" stop-color="white" stop-opacity="0.01"/>
<stop offset="0.486862" stop-color="white" stop-opacity="0.01"/>
<stop offset="1" stop-color="white"/>
</radialGradient>
<radialGradient id="paint2_radial_1_417" cx="0" cy="0" r="1" gradientUnits="userSpaceOnUse" gradientTransform="translate(22.3799 18.3182) rotate(-0.409174) scale(20.1648 20.4491)">
<stop stop-color="white" stop-opacity="0"/>
<stop offset="0.0723348" stop-color="white" stop-opacity="0"/>
<stop offset="0.37625" stop-color="white" stop-opacity="0.01"/>
<stop offset="0.486862" stop-color="white" stop-opacity="0.01"/>
<stop offset="1" stop-color="white"/>
</radialGradient>
<radialGradient id="paint3_radial_1_417" cx="0" cy="0" r="1" gradientUnits="userSpaceOnUse" gradientTransform="translate(22.3805 18.3176) rotate(-0.409174) scale(20.1649 20.4492)">
<stop stop-color="white" stop-opacity="0"/>
<stop offset="0.0723348" stop-color="white" stop-opacity="0"/>
<stop offset="0.37625" stop-color="white" stop-opacity="0.01"/>
<stop offset="0.486862" stop-color="white" stop-opacity="0.01"/>
<stop offset="1" stop-color="white"/>
</radialGradient>
<radialGradient id="paint4_radial_1_417" cx="0" cy="0" r="1" gradientUnits="userSpaceOnUse" gradientTransform="translate(22.3804 18.3177) rotate(-0.409174) scale(20.1648 20.4491)">
<stop stop-color="white" stop-opacity="0"/>
<stop offset="0.0723348" stop-color="white" stop-opacity="0"/>
<stop offset="0.37625" stop-color="white" stop-opacity="0.01"/>
<stop offset="0.486862" stop-color="white" stop-opacity="0.01"/>
<stop offset="1" stop-color="white"/>
</radialGradient>
<radialGradient id="paint5_radial_1_417" cx="0" cy="0" r="1" gradientUnits="userSpaceOnUse" gradientTransform="translate(22.38 18.3172) rotate(-0.409174) scale(20.1648 20.4491)">
<stop stop-color="white" stop-opacity="0"/>
<stop offset="0.0723348" stop-color="white" stop-opacity="0"/>
<stop offset="0.37625" stop-color="white" stop-opacity="0.01"/>
<stop offset="0.486862" stop-color="white" stop-opacity="0.01"/>
<stop offset="1" stop-color="white"/>
</radialGradient>
<radialGradient id="paint6_radial_1_417" cx="0" cy="0" r="1" gradientUnits="userSpaceOnUse" gradientTransform="translate(22.38 18.3182) rotate(-0.409174) scale(20.1649 20.4492)">
<stop stop-color="white" stop-opacity="0"/>
<stop offset="0.0723348" stop-color="white" stop-opacity="0"/>
<stop offset="0.37625" stop-color="white" stop-opacity="0.01"/>
<stop offset="0.486862" stop-color="white" stop-opacity="0.01"/>
<stop offset="1" stop-color="white"/>
</radialGradient>
<radialGradient id="paint7_radial_1_417" cx="0" cy="0" r="1" gradientUnits="userSpaceOnUse" gradientTransform="translate(22.3801 18.3174) rotate(-0.409174) scale(20.165 20.4493)">
<stop stop-color="white" stop-opacity="0"/>
<stop offset="0.0723348" stop-color="white" stop-opacity="0"/>
<stop offset="0.37625" stop-color="white" stop-opacity="0.01"/>
<stop offset="0.486862" stop-color="white" stop-opacity="0.01"/>
<stop offset="1" stop-color="white"/>
</radialGradient>
<radialGradient id="paint8_radial_1_417" cx="0" cy="0" r="1" gradientUnits="userSpaceOnUse" gradientTransform="translate(22.3803 18.3181) rotate(-0.409174) scale(20.1648 20.4491)">
<stop stop-color="white" stop-opacity="0"/>
<stop offset="0.0723348" stop-color="white" stop-opacity="0"/>
<stop offset="0.37625" stop-color="white" stop-opacity="0.01"/>
<stop offset="0.486862" stop-color="white" stop-opacity="0.01"/>
<stop offset="1" stop-color="white"/>
</radialGradient>
<radialGradient id="paint9_radial_1_417" cx="0" cy="0" r="1" gradientUnits="userSpaceOnUse" gradientTransform="translate(22.3799 18.3182) rotate(-0.409174) scale(20.1649 20.4492)">
<stop stop-color="white" stop-opacity="0"/>
<stop offset="0.0723348" stop-color="white" stop-opacity="0"/>
<stop offset="0.37625" stop-color="white" stop-opacity="0.01"/>
<stop offset="0.486862" stop-color="white" stop-opacity="0.01"/>
<stop offset="1" stop-color="white"/>
</radialGradient>
<radialGradient id="paint10_radial_1_417" cx="0" cy="0" r="1" gradientUnits="userSpaceOnUse" gradientTransform="translate(22.3793 18.3173) rotate(-0.409174) scale(20.1648 20.4491)">
<stop stop-color="white" stop-opacity="0"/>
<stop offset="0.0723348" stop-color="white" stop-opacity="0"/>
<stop offset="0.37625" stop-color="white" stop-opacity="0.01"/>
<stop offset="0.486862" stop-color="white" stop-opacity="0.01"/>
<stop offset="1" stop-color="white"/>
</radialGradient>
<radialGradient id="paint11_radial_1_417" cx="0" cy="0" r="1" gradientUnits="userSpaceOnUse" gradientTransform="translate(22.3839 18.3166) rotate(-0.409174) scale(20.1649 20.4492)">
<stop stop-color="white" stop-opacity="0"/>
<stop offset="0.0723348" stop-color="white" stop-opacity="0"/>
<stop offset="0.37625" stop-color="white" stop-opacity="0.01"/>
<stop offset="0.486862" stop-color="white" stop-opacity="0.01"/>
<stop offset="1" stop-color="white"/>
</radialGradient>
<radialGradient id="paint12_radial_1_417" cx="0" cy="0" r="1" gradientUnits="userSpaceOnUse" gradientTransform="translate(22.3791 18.3177) rotate(-0.409174) scale(20.1648 20.4491)">
<stop stop-color="white" stop-opacity="0"/>
<stop offset="0.0723348" stop-color="white" stop-opacity="0"/>
<stop offset="0.37625" stop-color="white" stop-opacity="0.01"/>
<stop offset="0.486862" stop-color="white" stop-opacity="0.01"/>
<stop offset="1" stop-color="white"/>
</radialGradient>
<radialGradient id="paint13_radial_1_417" cx="0" cy="0" r="1" gradientUnits="userSpaceOnUse" gradientTransform="translate(22.38 18.3173) rotate(-0.409174) scale(20.1648 20.4491)">
<stop stop-color="white" stop-opacity="0"/>
<stop offset="0.0723348" stop-color="white" stop-opacity="0"/>
<stop offset="0.37625" stop-color="white" stop-opacity="0.01"/>
<stop offset="0.486862" stop-color="white" stop-opacity="0.01"/>
<stop offset="1" stop-color="white"/>
</radialGradient>
<radialGradient id="paint14_radial_1_417" cx="0" cy="0" r="1" gradientUnits="userSpaceOnUse" gradientTransform="translate(22.3801 18.3177) rotate(-0.409174) scale(20.1648 20.4491)">
<stop stop-color="white" stop-opacity="0"/>
<stop offset="0.0723348" stop-color="white" stop-opacity="0"/>
<stop offset="0.37625" stop-color="white" stop-opacity="0.01"/>
<stop offset="0.486862" stop-color="white" stop-opacity="0.01"/>
<stop offset="1" stop-color="white"/>
</radialGradient>
<radialGradient id="paint15_radial_1_417" cx="0" cy="0" r="1" gradientUnits="userSpaceOnUse" gradientTransform="translate(22.383 18.3162) rotate(-0.409174) scale(20.1648 20.4491)">
<stop stop-color="white" stop-opacity="0"/>
<stop offset="0.0723348" stop-color="white" stop-opacity="0"/>
<stop offset="0.37625" stop-color="white" stop-opacity="0.01"/>
<stop offset="0.486862" stop-color="white" stop-opacity="0.01"/>
<stop offset="1" stop-color="white"/>
</radialGradient>
<radialGradient id="paint16_radial_1_417" cx="0" cy="0" r="1" gradientUnits="userSpaceOnUse" gradientTransform="translate(22.3808 18.3184) rotate(-0.409174) scale(20.1648 20.4491)">
<stop stop-color="white" stop-opacity="0"/>
<stop offset="0.0723348" stop-color="white" stop-opacity="0"/>
<stop offset="0.37625" stop-color="white" stop-opacity="0.01"/>
<stop offset="0.486862" stop-color="white" stop-opacity="0.01"/>
<stop offset="1" stop-color="white"/>
</radialGradient>
<clipPath id="clip0_1_417">
<rect width="24" height="24"  transform="translate(11 5.93213)"/>
</clipPath>
</defs>
</svg>
