<svg width="21" height="11" viewBox="0 0 21 11" fill="none" xmlns="http://www.w3.org/2000/svg">
<path opacity="0.992" fill-rule="evenodd" clip-rule="evenodd" d="M0.542071 0.038681C1.13175 0.0303035 1.70669 0.120485 2.26684 0.309717C4.22426 0.935071 5.9819 1.9039 7.53971 3.21719C7.4829 4.52359 7.47467 5.82949 7.51508 7.13489C6.05528 8.31267 4.43729 9.22433 2.66108 9.86989C2.07327 10.0601 1.47369 10.1996 0.862386 10.2888C0.36442 10.2745 0.0769248 10.0281 0 9.54958C0.344314 8.09978 0.54143 6.62929 0.59135 5.13908C0.539164 3.66514 0.342047 2.2114 0 0.77787C0.0131575 0.40384 0.193864 0.157444 0.542071 0.038681Z" fill="#C9DCFC"/>
<path opacity="0.992" fill-rule="evenodd" clip-rule="evenodd" d="M19.268 0.0389132C19.7757 -0.0783713 20.1782 0.0694663 20.4753 0.482426C20.4836 0.572607 20.4918 0.663281 20.5 0.753462C20.1602 2.19537 19.9631 3.65748 19.9086 5.13931C19.9631 6.62114 20.1602 8.08325 20.5 9.52516C20.4346 10.017 20.1471 10.2717 19.6376 10.289C17.8132 9.97212 16.1295 9.30685 14.5865 8.29318C14.0306 7.91816 13.4885 7.52393 12.9603 7.11048C13.026 5.81296 13.026 4.51494 12.9603 3.21742C14.8013 1.64788 16.9039 0.588376 19.268 0.0389132Z" fill="#C9DCFC"/>
<path opacity="0.994" fill-rule="evenodd" clip-rule="evenodd" d="M7.83545 3.74884C7.83545 3.19656 8.28316 2.74884 8.83545 2.74884C9.77857 2.74884 10.7217 2.74884 11.6648 2.74884C12.2171 2.74884 12.6648 3.19656 12.6648 3.74884C12.6648 4.6755 12.6648 5.60226 12.6648 6.52893C12.6648 7.08121 12.2171 7.52893 11.6648 7.52893C10.7217 7.52893 9.77857 7.52893 8.83545 7.52893C8.28316 7.52893 7.83545 7.08121 7.83545 6.52893C7.83545 5.60226 7.83545 4.6755 7.83545 3.74884Z" fill="#C9DCFC"/>
</svg>
