<svg width="90" height="23" viewBox="0 0 90 23" fill="none" xmlns="http://www.w3.org/2000/svg">
<path d="M0 17.5618L7.10834 0.344349H10.1583L17.1928 17.5618H14.3889L12.3966 12.5195H4.6979L2.681 17.5618H0ZM5.53418 10.3797H11.5603L8.55953 2.80398L5.53418 10.3797Z" fill="#0F2448"/>
<path d="M18.6728 17.5618V5.04225H21.1325V6.32126C22.0999 5.30461 23.3544 4.79629 24.8957 4.79629C25.8632 4.79629 26.7077 5.00126 27.4291 5.4112C28.167 5.82113 28.741 6.39505 29.1509 7.13294C29.5772 7.87083 29.7904 8.7235 29.7904 9.69096V17.5618H27.3308V10.1091C27.3308 9.12524 27.052 8.35456 26.4945 7.79704C25.9534 7.22313 25.1909 6.93617 24.207 6.93617C23.5511 6.93617 22.9608 7.07555 22.4361 7.35431C21.9114 7.63306 21.4768 8.03481 21.1325 8.55953V17.5618H18.6728Z" fill="#0F2448"/>
<path d="M33.2245 22.85C32.9621 22.85 32.7161 22.8336 32.4866 22.8008C32.257 22.7844 32.0684 22.7516 31.9209 22.7024V20.5379C32.216 20.6035 32.5768 20.6363 33.0031 20.6363C34.1509 20.6363 34.979 20.0214 35.4873 18.7916L36.0285 17.5864L31.0108 5.04225H33.741L37.3812 14.5856L41.415 5.04225H44.0715L38.0208 19.1114C37.6272 19.9968 37.2091 20.7101 36.7663 21.2512C36.3236 21.8088 35.8153 22.2105 35.2414 22.4565C34.6675 22.7188 33.9952 22.85 33.2245 22.85Z" fill="#0F2448"/>
<path d="M49.2957 17.5618V2.63181H43.245V0.344349H57.929V2.63181H51.8783V17.5618H49.2957Z" fill="#0F2448"/>
<path d="M59.7949 17.5618V5.04225H62.2545V17.5618H59.7949ZM61.0247 3.02535C60.6147 3.02535 60.2622 2.87777 59.967 2.58262C59.6719 2.27106 59.5243 1.91032 59.5243 1.50038C59.5243 1.07404 59.6719 0.721493 59.967 0.442734C60.2622 0.147578 60.6147 0 61.0247 0C61.451 0 61.8118 0.147578 62.1069 0.442734C62.4021 0.721493 62.5496 1.07404 62.5496 1.50038C62.5496 1.91032 62.4021 2.27106 62.1069 2.58262C61.8118 2.87777 61.451 3.02535 61.0247 3.02535Z" fill="#0F2448"/>
<path d="M65.1513 22.5794V5.04225H67.5863V6.24747C68.6358 5.31281 69.9148 4.84548 71.4234 4.84548C72.604 4.84548 73.6698 5.13244 74.6209 5.70635C75.5883 6.28027 76.3508 7.05095 76.9083 8.01841C77.4659 8.98586 77.7446 10.0763 77.7446 11.2897C77.7446 12.5031 77.4576 13.6018 76.8837 14.5856C76.3262 15.5531 75.5637 16.3238 74.5963 16.8977C73.6452 17.4716 72.5712 17.7586 71.3742 17.7586C70.6855 17.7586 70.0214 17.652 69.3819 17.4388C68.7423 17.2092 68.152 16.8895 67.6109 16.4795V22.5794H65.1513ZM71.1036 15.6187C71.9071 15.6187 72.6204 15.4301 73.2435 15.053C73.883 14.6758 74.3913 14.1675 74.7685 13.528C75.1456 12.8721 75.3342 12.1342 75.3342 11.3143C75.3342 10.4944 75.1456 9.75655 74.7685 9.10065C74.3913 8.44474 73.883 7.92822 73.2435 7.55108C72.6204 7.17393 71.9071 6.98536 71.1036 6.98536C70.3985 6.98536 69.7426 7.11654 69.1359 7.3789C68.5292 7.64126 68.0209 8.01021 67.6109 8.48574V14.1429C68.0209 14.602 68.5292 14.9628 69.1359 15.2251C69.759 15.4875 70.4149 15.6187 71.1036 15.6187Z" fill="#0F2448"/>
<path d="M84.396 17.8078C83.3138 17.8078 82.2971 17.652 81.3461 17.3404C80.4114 17.0125 79.5997 16.5533 78.911 15.963L80.2638 14.3397C80.9033 14.848 81.5592 15.2415 82.2315 15.5203C82.9202 15.7827 83.6171 15.9138 84.3222 15.9138C85.2077 15.9138 85.9292 15.7417 86.4867 15.3973C87.0442 15.053 87.323 14.602 87.323 14.0445C87.323 13.5854 87.159 13.2246 86.831 12.9623C86.5031 12.6999 85.9948 12.5195 85.3061 12.4212L83.0432 12.1014C81.797 11.921 80.8623 11.5357 80.2392 10.9454C79.6161 10.3551 79.3046 9.56798 79.3046 8.58412C79.3046 7.82984 79.5095 7.17393 79.9195 6.61642C80.3294 6.0425 80.9033 5.59977 81.6412 5.28821C82.3791 4.96026 83.24 4.79629 84.2238 4.79629C85.1257 4.79629 85.9948 4.92747 86.831 5.18983C87.6673 5.45219 88.4708 5.86213 89.2415 6.41965L87.9871 8.043C87.2984 7.58387 86.6261 7.24772 85.9702 7.03455C85.3307 6.82139 84.683 6.7148 84.0271 6.7148C83.2728 6.7148 82.6661 6.87878 82.2069 7.20673C81.7478 7.51828 81.5182 7.92822 81.5182 8.43655C81.5182 8.89568 81.674 9.25642 81.9856 9.51878C82.3135 9.76475 82.8464 9.93692 83.5843 10.0353L85.8472 10.3551C87.0934 10.5354 88.0363 10.9208 88.6758 11.5111C89.3153 12.085 89.635 12.8639 89.635 13.8477C89.635 14.602 89.4055 15.2825 88.9463 15.8892C88.4872 16.4795 87.8641 16.9469 87.077 17.2912C86.2899 17.6356 85.3962 17.8078 84.396 17.8078Z" fill="#0F2448"/>
</svg>
