<svg width="142" height="142" viewBox="0 0 142 142" fill="none" xmlns="http://www.w3.org/2000/svg">
<circle cx="71" cy="71" r="71" fill="#C9DCFC"/>
<path d="M75.1604 67.2273V74.5H73.8429V68.5092H73.8003L72.0993 69.5959V68.3885L73.9069 67.2273H75.1604Z" fill="white"/>
<mask id="mask0_12_5054" style="mask-type:alpha" maskUnits="userSpaceOnUse" x="5" y="5" width="132" height="132">
<circle cx="71" cy="71" r="65.0833" fill="#D9D9D9"/>
</mask>
<g mask="url(#mask0_12_5054)">
<rect width="142" height="142" fill="#C9DCFC"/>
</g>
<path d="M99.3499 52.253C97.0469 49.7724 93.2289 49.7338 90.8804 52.1738L64.4337 79.6505L51.1201 65.8184C48.7716 63.3785 44.9536 63.4171 42.6506 65.8977C40.4047 68.3166 40.4357 72.1637 42.7255 74.5426L64.4337 97.0963L99.275 60.8979C101.565 58.519 101.596 54.6719 99.3499 52.253Z" fill="#10234B"/>
</svg>
